<svg width="30" height="30" viewBox="0 0 30 30" fill="none" xmlns="http://www.w3.org/2000/svg">
<path fill-rule="evenodd" clip-rule="evenodd" d="M10.9395 22.0608C10.6583 21.7795 10.5003 21.3981 10.5003 21.0003C10.5003 20.6026 10.6583 20.2211 10.9395 19.9398L15.879 15.0003L10.9395 10.0608C10.7962 9.92245 10.682 9.75693 10.6033 9.57393C10.5247 9.39092 10.4834 9.19409 10.4816 8.99492C10.4799 8.79575 10.5178 8.59823 10.5933 8.41389C10.6687 8.22954 10.7801 8.06207 10.9209 7.92123C11.0617 7.78039 11.2292 7.66901 11.4136 7.59359C11.5979 7.51817 11.7954 7.48021 11.9946 7.48194C12.1938 7.48367 12.3906 7.52505 12.5736 7.60367C12.7566 7.68228 12.9221 7.79655 13.0605 7.93982L19.0605 13.9398C19.3417 14.2211 19.4997 14.6026 19.4997 15.0003C19.4997 15.3981 19.3417 15.7795 19.0605 16.0608L13.0605 22.0608C12.7792 22.342 12.3977 22.5 12 22.5C11.6023 22.5 11.2208 22.342 10.9395 22.0608Z" fill="#222324"/>
</svg>
