<svg width="30" height="31" viewBox="0 0 30 31" fill="none" xmlns="http://www.w3.org/2000/svg">
<path d="M3 8C3 7.20435 3.31607 6.44129 3.87868 5.87868C4.44129 5.31607 5.20435 5 6 5H16.5C17.2956 5 18.0587 5.31607 18.6213 5.87868C19.1839 6.44129 19.5 7.20435 19.5 8V14C19.5 14.7956 19.1839 15.5587 18.6213 16.1213C18.0587 16.6839 17.2956 17 16.5 17H13.5L9 21.5V17H6C5.20435 17 4.44129 16.6839 3.87868 16.1213C3.31607 15.5587 3 14.7956 3 14V8Z" fill="#222324"/>
<path d="M22.5 11V14C22.5 15.5913 21.8679 17.1174 20.7427 18.2426C19.6174 19.3679 18.0913 20 16.5 20H14.742L12.093 22.6505C12.513 22.874 12.9915 23 13.5 23H16.5L21 27.5V23H24C24.7957 23 25.5587 22.6839 26.1213 22.1213C26.6839 21.5587 27 20.7956 27 20V14C27 13.2044 26.6839 12.4413 26.1213 11.8787C25.5587 11.3161 24.7957 11 24 11H22.5Z" fill="#222324"/>
</svg>
