<svg width="30" height="31" viewBox="0 0 30 31" fill="none" xmlns="http://www.w3.org/2000/svg">
<path fill-rule="evenodd" clip-rule="evenodd" d="M4.75794 8.258C5.88311 7.13317 7.40895 6.50128 8.99994 6.50128C10.5909 6.50128 12.1168 7.13317 13.2419 8.258L14.9999 10.0145L16.7579 8.258C17.3114 7.68494 17.9735 7.22784 18.7055 6.91339C19.4375 6.59894 20.2249 6.43342 21.0215 6.4265C21.8182 6.41957 22.6083 6.57138 23.3457 6.87307C24.083 7.17475 24.753 7.62027 25.3163 8.18363C25.8797 8.74698 26.3252 9.4169 26.6269 10.1543C26.9286 10.8917 27.0804 11.6817 27.0734 12.4784C27.0665 13.2751 26.901 14.0624 26.5865 14.7944C26.2721 15.5265 25.815 16.1885 25.2419 16.742L14.9999 26.9855L4.75794 16.742C3.63311 15.6168 3.00122 14.091 3.00122 12.5C3.00122 10.909 3.63311 9.38316 4.75794 8.258Z" fill="#222324"/>
</svg>
