<svg width="25" height="25" viewBox="0 0 25 25" fill="none" xmlns="http://www.w3.org/2000/svg">
<path d="M1.65332 11.48C1.65313 11.2389 1.70535 10.9986 1.80859 10.7729C1.91202 10.5469 2.06486 10.3375 2.2627 10.1616L12.0293 1.49268C12.2149 1.32788 12.4719 1.22707 12.75 1.22705C13.0281 1.22705 13.2851 1.32792 13.4707 1.49268L15.1348 2.97021V2.96631L23.2354 10.1626V10.1636C23.4332 10.3392 23.5868 10.5472 23.6904 10.7729C23.794 10.9986 23.8466 11.2388 23.8467 11.48V22.0288C23.8467 22.4962 23.6498 22.9583 23.2764 23.3091C22.9009 23.6617 22.3785 23.8696 21.8223 23.8696H18.7988C18.4027 23.8696 17.6508 23.8643 16.9941 23.8589C16.9195 23.8583 16.8458 23.8575 16.7744 23.8569V17.2944C16.7744 16.7574 16.5466 16.2556 16.1641 15.896C15.7835 15.5385 15.2796 15.3473 14.7666 15.3472H10.7344C10.2854 15.3472 9.84286 15.4929 9.48438 15.769L9.33691 15.896C8.95411 16.2556 8.72559 16.7572 8.72559 17.2944V23.8569C8.65441 23.8575 8.58127 23.8583 8.50684 23.8589C7.85034 23.8643 7.09844 23.8696 6.70215 23.8696H3.67773C3.12171 23.8696 2.60008 23.6615 2.22461 23.3091C1.85125 22.9586 1.65365 22.4969 1.65332 22.0298V11.48Z" stroke="black" stroke-width="2"/>
</svg>
