<svg width="30" height="31" viewBox="0 0 30 31" fill="none" xmlns="http://www.w3.org/2000/svg">
<path fill-rule="evenodd" clip-rule="evenodd" d="M3.249 7.99852C7.5917 7.94452 11.7672 6.31621 15 3.41602C18.2326 6.31675 22.4081 7.9456 26.751 8.00002C26.916 8.97502 27 9.98002 27 11.0015C27 18.839 21.99 25.5065 15 27.977C8.01 25.505 3 18.8375 3 11C3 9.97702 3.0855 8.97502 3.249 7.99852ZM20.5605 13.5605C20.8337 13.2776 20.9849 12.8987 20.9815 12.5054C20.9781 12.1121 20.8203 11.7359 20.5422 11.4578C20.2641 11.1797 19.8879 11.0219 19.4946 11.0185C19.1013 11.0151 18.7224 11.1663 18.4395 11.4395L13.5 16.379L11.5605 14.4395C11.2776 14.1663 10.8987 14.0151 10.5054 14.0185C10.1121 14.0219 9.73588 14.1797 9.45777 14.4578C9.17966 14.7359 9.02191 15.1121 9.01849 15.5054C9.01507 15.8987 9.16626 16.2776 9.4395 16.5605L12.4395 19.5605C12.7208 19.8417 13.1023 19.9997 13.5 19.9997C13.8977 19.9997 14.2792 19.8417 14.5605 19.5605L20.5605 13.5605Z" fill="#222324"/>
</svg>
