<svg width="31" height="31" viewBox="0 0 31 31" fill="none" xmlns="http://www.w3.org/2000/svg">
<path d="M17.1352 3.74474C16.7608 3.41229 16.2652 3.22705 15.7501 3.22705C15.235 3.22705 14.7393 3.41229 14.365 3.74474L4.59889 12.4152C4.29986 12.681 4.06175 13.0014 3.89916 13.3567C3.73657 13.712 3.65291 14.0947 3.65332 14.4815V25.0307C3.65386 25.7839 3.97271 26.506 4.5398 27.0383C5.10689 27.5707 5.8758 27.8697 6.67752 27.8697H9.70171C10.5038 27.8697 12.7259 27.8483 12.7259 27.8483C12.7259 27.8483 12.7259 25.7823 12.7259 25.0288V20.294C12.7259 20.0428 12.8321 19.802 13.0212 19.6244C13.2102 19.4468 13.4666 19.347 13.734 19.347H17.7662C18.0336 19.347 18.29 19.4468 18.479 19.6244C18.6681 19.802 18.7743 20.0428 18.7743 20.294V25.0288C18.7743 25.7823 18.7743 27.8483 18.7743 27.8483C18.7743 27.8483 20.9964 27.8697 21.7985 27.8697H24.8227C25.6247 27.8697 26.394 27.5704 26.9611 27.0377C27.5282 26.5049 27.8469 25.7823 27.8469 25.0288V14.4796C27.8467 14.093 27.7626 13.7106 27.5997 13.3556C27.4368 13.0006 27.1984 12.6806 26.8993 12.4152L17.1352 3.74096V3.74474Z" fill="white"/>
</svg>
